<svg width="20" height="20" viewBox="0 0 20 20" fill="none" xmlns="http://www.w3.org/2000/svg">
<path d="M5.1372 18.4375H2.3713C2.03778 18.4375 1.83657 18.2514 1.74634 18.1404C1.59056 17.9487 1.5302 17.6994 1.58087 17.4561C2.39216 13.5591 5.83122 10.7132 9.80138 10.6209C9.86751 10.6234 9.9338 10.625 10.0005 10.625C10.0677 10.625 10.1346 10.6233 10.2013 10.6208C11.1722 10.643 12.1204 10.8255 13.0231 11.1645C13.427 11.3162 13.8774 11.1116 14.0291 10.7077C14.1808 10.3038 13.9763 9.85336 13.5723 9.70168C13.443 9.65309 13.3127 9.60762 13.1819 9.56449C14.4749 8.59457 15.313 7.04957 15.313 5.3125C15.313 2.3832 12.9298 0 10.0005 0C7.07114 0 4.68798 2.3832 4.68798 5.3125C4.68798 7.05113 5.52751 8.59734 6.82247 9.56711C5.6361 9.95766 4.52282 10.565 3.54853 11.3664C1.76212 12.8358 0.520048 14.8854 0.0511812 17.1376C-0.0957719 17.8433 0.0802437 18.5682 0.534111 19.1262C0.985673 19.6815 1.65532 20 2.3713 20H5.1372C5.56868 20 5.91845 19.6502 5.91845 19.2188C5.91845 18.7873 5.56868 18.4375 5.1372 18.4375ZM6.25048 5.3125C6.25048 3.24473 7.9327 1.5625 10.0005 1.5625C12.0683 1.5625 13.7505 3.24473 13.7505 5.3125C13.7505 7.31902 12.1663 8.96242 10.1831 9.05801C10.1222 9.05691 10.0614 9.05598 10.0005 9.05598C9.93938 9.05598 9.87833 9.05688 9.81731 9.05797C7.83431 8.96211 6.25048 7.31883 6.25048 5.3125Z" fill="white"/>
<path d="M19.4019 13.4612C19.0675 12.7132 18.3142 12.2285 17.481 12.2266H15.0446C15.0428 12.2266 15.0412 12.2266 15.0394 12.2266C14.1605 12.2266 13.3937 12.7445 13.0851 13.5471C13.0441 13.6539 12.9939 13.7885 12.9415 13.9453H7.82642C7.61521 13.9453 7.41303 14.0308 7.26588 14.1823L5.92385 15.5647C5.62826 15.8691 5.62974 16.3539 5.92717 16.6565L7.29435 18.0476C7.44123 18.197 7.64201 18.2812 7.85154 18.2812H10.3906C10.8221 18.2812 11.1719 17.9314 11.1719 17.5C11.1719 17.0685 10.8221 16.7187 10.3906 16.7187H8.17912L7.57646 16.1055L8.15682 15.5078H13.5276C13.8875 15.5078 14.2008 15.2619 14.2864 14.9123C14.3496 14.6543 14.4289 14.4061 14.5436 14.1078C14.6192 13.9111 14.8091 13.7891 15.0413 13.7891C15.0418 13.7891 15.0423 13.7891 15.0428 13.7891H17.4792C17.7001 13.7896 17.8903 13.9083 17.9754 14.0989C18.1852 14.5681 18.4356 15.2945 18.4375 16.0905C18.4394 16.8925 18.1892 17.6355 17.9789 18.1177C17.8942 18.3121 17.7024 18.4375 17.4883 18.4375C17.4879 18.4375 17.4874 18.4375 17.487 18.4375H15.0212C14.8051 18.437 14.6026 18.2979 14.5174 18.0915C14.4261 17.87 14.3469 17.617 14.2754 17.3182C14.1749 16.8986 13.7532 16.6398 13.3338 16.7402C12.9141 16.8406 12.6554 17.2622 12.7558 17.6818C12.8465 18.0607 12.9503 18.3896 13.073 18.6872C13.4011 19.4827 14.1644 19.998 15.0194 20H17.4852C17.4869 20 17.4885 20 17.4901 20C18.3242 19.9999 19.0779 19.5066 19.4112 18.7421C19.6812 18.1229 20.0025 17.1596 20 16.0868C19.9975 15.017 19.6734 14.0685 19.4019 13.4612Z" fill="white"/>
<path d="M16.8359 16.875C17.2674 16.875 17.6172 16.5252 17.6172 16.0938C17.6172 15.6623 17.2674 15.3125 16.8359 15.3125C16.4045 15.3125 16.0547 15.6623 16.0547 16.0938C16.0547 16.5252 16.4045 16.875 16.8359 16.875Z" fill="white"/>
</svg>
