<svg width="22" height="24" viewBox="0 0 22 24" fill="none" xmlns="http://www.w3.org/2000/svg">
<path d="M19.2447 16.9615H17.1821V15.4809C17.1821 15.1623 16.9238 14.904 16.6052 14.904H12.6056V8.22681C14.1668 7.59087 15.2706 6.05763 15.2706 4.27056C15.2706 1.91579 13.3548 0 11 0C8.64527 0 6.72948 1.91579 6.72948 4.27056C6.72948 6.05758 7.83325 7.59087 9.39446 8.22681V14.904H5.39488C5.07631 14.904 4.81796 15.1623 4.81796 15.4809V16.9615H2.75535C1.2891 16.9615 0.0961914 18.1544 0.0961914 19.6207V23.4231C0.0961914 23.7417 0.354538 24 0.673115 24H21.327C21.6455 24 21.9039 23.7417 21.9039 23.4231V19.6207C21.9039 18.1544 20.711 16.9615 19.2447 16.9615ZM7.88333 4.27056C7.88333 2.55202 9.28144 1.15385 11 1.15385C12.7186 1.15385 14.1168 2.55202 14.1168 4.27056C14.1168 5.9891 12.7186 7.38733 11 7.38733C9.28144 7.38733 7.88333 5.98915 7.88333 4.27056ZM10.5483 8.51706C10.6968 8.53275 10.8474 8.54117 11 8.54117C11.1526 8.54117 11.3033 8.53275 11.4518 8.51706V14.904H10.5483V8.51706ZM5.97181 16.0578H16.0283V16.9615H5.97181V16.0578ZM2.75535 18.1154H19.2447C20.0747 18.1154 20.75 18.7907 20.75 19.6207V20.4231H1.25004V19.6207C1.25004 18.7907 1.92533 18.1154 2.75535 18.1154ZM1.25004 22.8462V21.5769H20.75V22.8462H1.25004Z" fill="black"/>
</svg>
