<svg width="56" height="60" viewBox="0 0 56 60" fill="none" xmlns="http://www.w3.org/2000/svg">
<path d="M48.6118 42.4038H43.4553V38.7023C43.4553 37.9057 42.8094 37.26 42.013 37.26H32.014V20.567C35.9171 18.9772 38.6765 15.1441 38.6765 10.6764C38.6765 4.78947 33.887 0 28.0001 0C22.1132 0 17.3237 4.78947 17.3237 10.6764C17.3237 15.1439 20.0831 18.9772 23.9862 20.567V37.26H13.9872C13.1908 37.26 12.5449 37.9057 12.5449 38.7023V42.4038H7.38836C3.72274 42.4038 0.740479 45.3861 0.740479 49.0517V58.5577C0.740479 59.3543 1.38634 60 2.18279 60H53.8174C54.6138 60 55.2597 59.3543 55.2597 58.5577V49.0517C55.2597 45.3861 52.2775 42.4038 48.6118 42.4038ZM20.2083 10.6764C20.2083 6.38005 23.7036 2.88462 28.0001 2.88462C32.2966 2.88462 35.7919 6.38005 35.7919 10.6764C35.7919 14.9727 32.2966 18.4683 28.0001 18.4683C23.7036 18.4683 20.2083 14.9729 20.2083 10.6764ZM26.8708 21.2926C27.242 21.3319 27.6186 21.3529 28.0001 21.3529C28.3816 21.3529 28.7582 21.3319 29.1294 21.2926V37.26H26.8708V21.2926ZM15.4295 40.1446H40.5708V42.4038H15.4295V40.1446ZM7.38836 45.2885H48.6118C50.6869 45.2885 52.3751 46.9767 52.3751 49.0517V51.0577H3.62509V49.0517C3.62509 46.9767 5.31332 45.2885 7.38836 45.2885ZM3.62509 57.1154V53.9423H52.3751V57.1154H3.62509Z" fill="#00EFD2"/>
</svg>
