<svg width="60" height="60" viewBox="0 0 60 60" fill="none" xmlns="http://www.w3.org/2000/svg">
<path d="M52.7523 15.9738H49.2296C48.5531 7.0523 41.0778 0 31.9861 0H28.0134C18.9217 0 11.4462 7.0523 10.7699 15.9738H7.24715C3.71073 15.9738 0.83374 18.8509 0.83374 22.3873V33.6201C0.83374 37.1565 3.71073 40.0335 7.24715 40.0335H12.0396C12.7686 40.0335 13.3594 39.4427 13.3594 38.7138V17.2935C13.3594 9.21327 19.9332 2.63944 28.0134 2.63944H31.9861C40.0663 2.63944 46.6401 9.21327 46.6401 17.2935V38.6545C46.6401 44.9021 42.6946 50.4093 36.9007 52.4654C36.0668 50.5784 34.1783 49.2576 31.9862 49.2576C29.0245 49.2576 26.615 51.6671 26.615 54.6287C26.615 57.5903 29.0245 59.9999 31.9862 59.9999C34.7883 59.9999 37.0947 57.8427 37.3354 55.1019C43.9816 52.9459 48.6715 46.9848 49.2236 40.0333H52.7526C56.2891 40.0333 59.1661 37.1562 59.1661 33.6199V22.3872C59.1659 18.8509 56.2889 15.9738 52.7523 15.9738ZM10.7199 37.394H7.24715C5.16624 37.394 3.47318 35.701 3.47318 33.6201V22.3873C3.47318 20.3063 5.16624 18.6132 7.24715 18.6132H10.7199V37.394ZM31.9861 57.3606C30.4798 57.3606 29.2543 56.1351 29.2543 54.6289C29.2543 53.1226 30.4797 51.8972 31.9861 51.8972C33.4925 51.8972 34.7178 53.1226 34.7178 54.6289C34.7178 56.1351 33.4925 57.3606 31.9861 57.3606ZM56.5265 33.6201C56.5265 35.701 54.8334 37.394 52.7525 37.394H49.2796V18.6132H52.7525C54.8334 18.6132 56.5265 20.3063 56.5265 22.3873V33.6201Z" fill="#00EFD2"/>
</svg>
