<svg width="24" height="24" viewBox="0 0 24 24" fill="none" xmlns="http://www.w3.org/2000/svg">
<path d="M21.1009 6.38951H19.6918C19.4213 2.82092 16.4311 0 12.7944 0H11.2054C7.56868 0 4.57849 2.82092 4.30797 6.38951H2.89886C1.48429 6.38951 0.333496 7.54037 0.333496 8.95493V13.448C0.333496 14.8626 1.48429 16.0134 2.89886 16.0134H4.81586C5.10743 16.0134 5.34375 15.7771 5.34375 15.4855V6.9174C5.34375 3.68531 7.97328 1.05578 11.2054 1.05578H12.7944C16.0265 1.05578 18.656 3.68531 18.656 6.9174V15.4618C18.656 17.9608 17.0778 20.1637 14.7603 20.9862C14.4267 20.2313 13.6713 19.703 12.7945 19.703C11.6098 19.703 10.646 20.6669 10.646 21.8515C10.646 23.0361 11.6098 23.9999 12.7945 23.9999C13.9153 23.9999 14.8379 23.1371 14.9341 22.0408C17.5926 21.1784 19.4686 18.7939 19.6894 16.0133H21.1011C22.5156 16.0133 23.6664 14.8625 23.6664 13.448V8.95487C23.6664 7.54037 22.5156 6.38951 21.1009 6.38951ZM4.28797 14.9576H2.89886C2.0665 14.9576 1.38927 14.2804 1.38927 13.448V8.95493C1.38927 8.12251 2.0665 7.44529 2.89886 7.44529H4.28797V14.9576ZM12.7944 22.9442C12.1919 22.9442 11.7017 22.454 11.7017 21.8516C11.7017 21.2491 12.1919 20.7589 12.7944 20.7589C13.397 20.7589 13.8871 21.2491 13.8871 21.8516C13.8871 22.454 13.397 22.9442 12.7944 22.9442ZM22.6106 13.448C22.6106 14.2804 21.9334 14.9576 21.101 14.9576H19.7118V7.44529H21.101C21.9334 7.44529 22.6106 8.12251 22.6106 8.95493V13.448Z" fill="black"/>
</svg>
