<svg width="24" height="18" viewBox="0 0 24 18" fill="none" xmlns="http://www.w3.org/2000/svg">
<path d="M21.1908 6.05988C20.4198 5.22803 19.1615 5.13234 18.2637 5.83755C18.0184 6.03027 17.7322 6.19522 17.4167 6.33062C17.0702 4.32842 16.1606 2.49128 14.7638 0.98517C13.9929 0.153226 12.7346 0.0574289 11.8366 0.762635C11.0938 1.34648 9.98215 1.68136 8.78674 1.68136C7.59103 1.68136 6.47923 1.34648 5.73637 0.762584C4.83916 0.0574802 3.58084 0.153174 2.80925 0.985118C0.997667 2.93973 0 5.48433 0 8.15019C0 9.14908 0.139955 10.1383 0.416075 11.0906C0.617913 11.7865 1.15386 12.3283 1.84964 12.54C2.05681 12.603 2.26843 12.6339 2.47826 12.6339C2.97405 12.6339 3.45948 12.4615 3.85025 12.1339C4.70182 11.4194 5.69375 10.9014 6.75499 10.6108C6.53901 11.4572 6.42702 12.3344 6.42702 13.2254C6.42702 14.2248 6.56693 15.214 6.84284 16.1655C7.04468 16.8615 7.58063 17.4034 8.27661 17.615C8.48368 17.6779 8.69515 17.7088 8.90488 17.7088C9.40071 17.7088 9.88625 17.5363 10.2769 17.2086C11.6565 16.0511 13.4097 15.4137 15.2135 15.4137C17.0173 15.4137 18.7705 16.0511 20.1501 17.2086C20.706 17.675 21.4538 17.8269 22.1504 17.615C22.8463 17.4034 23.3823 16.8615 23.5841 16.1655C23.86 15.2141 23.9999 14.2249 23.9999 13.2254C24 10.5591 23.0023 8.01438 21.1908 6.05988ZM3.19182 11.3489C2.89782 11.5953 2.5173 11.6722 2.14789 11.5598C1.7792 11.4476 1.50662 11.1725 1.40006 10.8052C1.15089 9.94578 1.02456 9.05247 1.02456 8.15019C1.02456 5.74344 1.92525 3.44617 3.56061 1.68167C3.96608 1.24438 4.62928 1.19556 5.10329 1.56809C6.02319 2.29118 7.36578 2.70587 8.78679 2.70587C10.2075 2.70587 11.5499 2.29118 12.4696 1.56825C12.9442 1.19561 13.6073 1.24444 14.0125 1.68167C15.3033 3.07364 16.1329 4.7784 16.4284 6.63527C16.0816 6.70591 15.7168 6.74628 15.3425 6.75386C15.3913 6.65463 15.4192 6.54331 15.4188 6.42518C15.4178 6.01607 15.0848 5.68499 14.6752 5.68647C14.266 5.68745 13.9355 6.02048 13.9365 6.4301C13.9368 6.49895 13.9471 6.56529 13.9649 6.62851C13.2636 6.48117 12.638 6.21043 12.1633 5.83755C11.2657 5.13239 10.0074 5.22798 9.23627 6.05988C8.30602 7.06348 7.59103 8.22303 7.11491 9.47443C5.67438 9.75486 4.3235 10.3993 3.19182 11.3489ZM22.6001 15.8801C22.4936 16.2476 22.2211 16.5226 21.8523 16.6347C21.483 16.7471 21.1025 16.6702 20.8087 16.4236C19.2449 15.1116 17.2578 14.389 15.2135 14.389C13.1693 14.389 11.1822 15.1116 9.61838 16.4236C9.32459 16.6701 8.94432 16.747 8.57471 16.6347C8.20602 16.5226 7.93339 16.2476 7.82688 15.8801C7.57786 15.0214 7.45159 14.1281 7.45159 13.2253C7.45159 10.8181 8.35228 8.52077 9.98768 6.75637C10.2105 6.51601 10.5112 6.39316 10.8157 6.39316C11.065 6.39316 11.3168 6.47554 11.5303 6.64326C12.4505 7.36609 13.793 7.78068 15.2135 7.78068C16.634 7.78068 17.9765 7.36609 18.8966 6.64326C19.3709 6.27068 20.034 6.31919 20.4392 6.75637C22.0746 8.52082 22.9753 10.8182 22.9753 13.2253C22.9754 14.1282 22.8492 15.0214 22.6001 15.8801Z" fill="black"/>
</svg>
