<svg width="60" height="44" viewBox="0 0 60 44" fill="none" xmlns="http://www.w3.org/2000/svg">
<path d="M17.7153 12.7258H15.4822V10.4926C15.4822 10.0296 15.1893 9.61724 14.7521 9.46471C14.0708 9.22714 13.3556 9.10663 12.6261 9.10663C11.8966 9.10663 11.1813 9.22714 10.5001 9.46471C10.0629 9.61724 9.77 10.0296 9.77 10.4926V12.7258H7.5371C7.07412 12.7258 6.66187 13.0187 6.50933 13.4558C6.27164 14.1368 6.15112 14.8522 6.15112 15.5819C6.15112 16.3115 6.27164 17.0269 6.50933 17.708C6.66187 18.1451 7.07425 18.4378 7.5371 18.4378H9.77025V20.671C9.77025 21.134 10.0632 21.5462 10.5003 21.6987C11.1813 21.9364 11.8967 22.057 12.6263 22.057C13.356 22.057 14.0714 21.9364 14.7524 21.6987C15.1895 21.5462 15.4824 21.134 15.4824 20.671V18.4378H17.7156C18.1786 18.4378 18.591 18.1449 18.7435 17.7078C18.9811 17.0267 19.1016 16.3115 19.1016 15.5819C19.1016 14.8524 18.9811 14.1371 18.7435 13.4559C18.5907 13.0187 18.1784 12.7258 17.7153 12.7258ZM16.8711 16.2606H14.3937C13.7926 16.2606 13.3051 16.7481 13.3051 17.3492V19.8266C12.8593 19.8974 12.3933 19.8973 11.9474 19.8266V17.3492C11.9474 16.7481 11.46 16.2606 10.8588 16.2606H8.38146C8.34612 16.0377 8.32831 15.811 8.32831 15.5819C8.32831 15.3527 8.34612 15.1259 8.38146 14.903H10.8588C11.46 14.903 11.9474 14.4155 11.9474 13.8144V11.3371C12.3934 11.2663 12.8593 11.2663 13.3051 11.3371V13.8144C13.3051 14.4155 13.7926 14.903 14.3937 14.903H16.871C16.9063 15.1259 16.9241 15.3526 16.9241 15.5819C16.9241 15.811 16.9063 16.0378 16.8711 16.2606Z" fill="#00EFD2"/>
<path d="M32.5724 13.3209C32.5736 13.3209 32.5748 13.3209 32.576 13.3209C33.6 13.3197 34.4278 12.4883 34.4253 11.4643C34.4228 10.4414 33.5927 9.61377 32.5687 9.61505C31.5458 9.61749 30.7169 10.4489 30.7195 11.4717C30.7218 12.4944 31.5507 13.3209 32.5724 13.3209Z" fill="#00EFD2"/>
<path d="M52.9769 14.6496C51.0494 12.57 47.9036 12.3308 45.6593 14.0938C45.046 14.5756 44.3305 14.988 43.5418 15.3265C42.6754 10.321 40.4014 5.72811 36.9096 1.96285C34.9823 -0.117012 31.8366 -0.356504 29.5915 1.40651C27.7345 2.86613 24.9554 3.70332 21.9669 3.70332C18.9776 3.70332 16.1981 2.86613 14.3409 1.40638C12.0979 -0.356376 8.95211 -0.11714 7.02311 1.96272C2.49417 6.84924 0 13.2107 0 19.8754C0 22.3726 0.349888 24.8458 1.04019 27.2264C1.54478 28.9661 2.88465 30.3207 4.6241 30.8498C5.14202 31.0074 5.67108 31.0846 6.19565 31.0846C7.43512 31.0846 8.64871 30.6536 9.62563 29.8346C11.7545 28.0483 14.2344 26.7534 16.8875 26.027C16.3475 28.1428 16.0676 30.3359 16.0676 32.5633C16.0676 35.0618 16.4173 37.5349 17.1071 39.9136C17.6117 41.6536 18.9516 43.0083 20.6915 43.5374C21.2092 43.6948 21.7379 43.7719 22.2622 43.7719C23.5018 43.7719 24.7156 43.3407 25.6922 42.5214C29.1412 39.6277 33.5243 38.0341 38.0338 38.0341C42.5433 38.0341 46.9263 39.6277 50.3753 42.5214C51.765 43.6874 53.6344 44.0671 55.3759 43.5375C57.1159 43.0083 58.4557 41.6537 58.9603 39.9138C59.6501 37.5351 59.9999 35.0621 59.9999 32.5634C60 25.8976 57.5058 19.5359 52.9769 14.6496ZM7.97954 27.8721C7.24455 28.4882 6.29324 28.6805 5.36973 28.3994C4.44801 28.119 3.76654 27.4313 3.50016 26.513C2.87723 24.3644 2.5614 22.1311 2.5614 19.8754C2.5614 13.8585 4.81313 8.11534 8.90152 3.70409C9.91519 2.61088 11.5732 2.48883 12.7582 3.42016C15.058 5.22787 18.4144 6.2646 21.967 6.2646C25.5186 6.2646 28.8747 5.22787 31.174 3.42054C32.3605 2.48896 34.0181 2.61101 35.0312 3.70409C38.2583 7.18401 40.3321 11.4459 41.071 16.0881C40.2039 16.2647 39.2919 16.3656 38.3563 16.3846C38.4782 16.1365 38.5481 15.8582 38.5471 15.5629C38.5445 14.5401 37.7119 13.7124 36.6879 13.7161C35.6651 13.7185 34.8387 14.5511 34.8412 15.5752C34.8419 15.7473 34.8678 15.9132 34.9122 16.0712C33.1589 15.7029 31.595 15.026 30.4082 14.0938C28.1642 12.3309 25.0184 12.5699 23.0907 14.6496C20.765 17.1586 18.9776 20.0575 17.7873 23.186C14.186 23.8871 10.8087 25.4981 7.97954 27.8721ZM56.5003 39.2002C56.234 40.1188 55.5526 40.8064 54.6306 41.0868C53.7074 41.3676 52.7562 41.1754 52.0217 40.559C48.1121 37.279 43.1444 35.4725 38.0338 35.4725C32.9231 35.4725 27.9555 37.279 24.0459 40.559C23.3115 41.1753 22.3608 41.3675 21.4368 41.0868C20.5151 40.8064 19.8335 40.1188 19.5672 39.2002C18.9447 37.0533 18.629 34.8203 18.629 32.5632C18.629 26.5453 20.8807 20.8018 24.9692 16.3909C25.5262 15.7899 26.2781 15.4828 27.0393 15.4828C27.6625 15.4828 28.2921 15.6888 28.8258 16.1081C31.1262 17.9151 34.4824 18.9516 38.0336 18.9516C41.5849 18.9516 44.9412 17.9151 47.2415 16.1081C48.4272 15.1766 50.0851 15.2979 51.0981 16.3909C55.1866 20.802 57.4383 26.5454 57.4383 32.5632C57.4386 34.8204 57.1229 37.0533 56.5003 39.2002Z" fill="#00EFD2"/>
<path d="M33.7817 25.4131H31.5486V23.18C31.5486 22.7171 31.2557 22.3047 30.8186 22.1522C30.1375 21.9146 29.4222 21.7941 28.6926 21.7941C27.9631 21.7941 27.2479 21.9146 26.5667 22.1522C26.1294 22.3047 25.8365 22.7171 25.8365 23.18V25.4132H23.6035C23.1405 25.4132 22.7283 25.7061 22.5757 26.1432C22.338 26.8243 22.2175 27.5397 22.2175 28.2693C22.2175 28.9989 22.338 29.7143 22.5757 30.3954C22.7283 30.8325 23.1405 31.1254 23.6035 31.1254H25.8365V33.3584C25.8365 33.8214 26.1294 34.2337 26.5665 34.3862C27.2477 34.6239 27.9631 34.7444 28.6926 34.7444C29.4222 34.7444 30.1376 34.6239 30.8187 34.3862C31.2558 34.2337 31.5486 33.8213 31.5486 33.3584V31.1254H33.7817C34.2446 31.1254 34.6569 30.8326 34.8095 30.3955C35.047 29.7146 35.1677 28.9992 35.1677 28.2693C35.1677 27.5394 35.0472 26.824 34.8095 26.1431C34.6569 25.7058 34.2446 25.4131 33.7817 25.4131ZM32.9374 28.9481H30.46C29.8588 28.9481 29.3714 29.4355 29.3714 30.0367V32.5139C28.9256 32.5848 28.4595 32.5846 28.0137 32.5139V30.0367C28.0137 29.4355 27.5263 28.9481 26.9251 28.9481H24.4479C24.4125 28.7251 24.3947 28.4984 24.3947 28.2692C24.3947 28.0399 24.4125 27.8132 24.4479 27.5903H26.9251C27.5263 27.5903 28.0137 27.1028 28.0137 26.5017V24.0244C28.4597 23.9536 28.9256 23.9537 29.3714 24.0244V26.5018C29.3714 27.103 29.8588 27.5904 30.46 27.5904H32.9374C32.9727 27.8134 32.9905 28.0401 32.9905 28.2693C32.9905 28.4985 32.9727 28.7251 32.9374 28.9481Z" fill="#00EFD2"/>
<path d="M52.7615 30.1097C52.7628 30.1097 52.7652 30.1097 52.7665 30.1097C53.7906 30.106 54.617 29.2745 54.6146 28.2505C54.6109 27.2278 53.7796 26.4 52.7555 26.4038C51.7326 26.4062 50.905 27.2388 50.9087 28.2616C50.911 29.2832 51.7399 30.1097 52.7615 30.1097Z" fill="#00EFD2"/>
<path d="M44.5318 26.4199C43.5089 26.4212 42.68 27.2512 42.6814 28.2753C42.6827 29.298 43.5127 30.127 44.5367 30.1257C45.5596 30.1245 46.3885 29.2944 46.3872 28.2716C46.3858 27.2476 45.5558 26.4188 44.5318 26.4199Z" fill="#00EFD2"/>
<path d="M48.6578 30.5299C48.6467 30.5299 48.6368 30.5299 48.6257 30.5299C47.6128 30.5422 46.7949 31.3662 46.7949 32.3829C46.7949 33.4057 47.6249 34.2358 48.6478 34.2358C48.6503 34.2358 48.6528 34.2358 48.654 34.2358C48.6577 34.2358 48.6614 34.2358 48.6651 34.2358C48.6677 34.2358 48.6701 34.2358 48.6726 34.2358C49.6953 34.2321 50.5218 33.3982 50.5181 32.3754C50.5132 31.3514 49.6806 30.5249 48.6578 30.5299Z" fill="#00EFD2"/>
<path d="M48.6396 26.0086C48.6407 26.0086 48.6421 26.0086 48.6433 26.0086C49.6674 26.0062 50.4951 25.1749 50.4925 24.152C50.4901 23.128 49.6587 22.3002 48.6359 22.3028C47.6119 22.3052 46.7842 23.1367 46.7866 24.1594C46.7878 25.181 47.6181 26.0086 48.6396 26.0086Z" fill="#00EFD2"/>
</svg>
