<svg width="24" height="24" viewBox="0 0 24 24" fill="none" xmlns="http://www.w3.org/2000/svg">
<path d="M23.4839 11.4839H21.0593C20.8004 6.89041 17.1095 3.19955 12.5161 2.94068V0.516081C12.5161 0.23105 12.285 0 12 0C11.715 0 11.4839 0.23105 11.4839 0.516081V2.94073C6.89041 3.1996 3.1995 6.89046 2.94063 11.4839H0.516081C0.231101 11.4839 0 11.715 0 12C0 12.2851 0.231101 12.5161 0.516081 12.5161H2.94068C3.19955 17.1096 6.89041 20.8005 11.4839 21.0593V23.4839C11.4839 23.7689 11.715 24 12 24C12.285 24 12.5161 23.7689 12.5161 23.4839V21.0593C17.1096 20.8005 20.8005 17.1096 21.0593 12.5161H23.484C23.769 12.5161 24.0001 12.2851 24.0001 12C24.0001 11.715 23.7689 11.4839 23.4839 11.4839ZM20.0251 11.4839H18.0761C17.8276 8.53222 15.4678 6.17238 12.5161 5.92384V3.97491C16.5402 4.23104 19.7689 7.4598 20.0251 11.4839ZM11.4839 12.5161V14.0253C10.7454 13.837 10.1629 13.2545 9.97466 12.5161H11.4839ZM9.97466 11.4839C10.1629 10.7454 10.7454 10.1629 11.4839 9.97466V11.4839H9.97466ZM12.5161 12.5161H14.0252C13.837 13.2545 13.2545 13.837 12.5161 14.0253V12.5161ZM12.5161 11.4839V9.97466C13.2545 10.1629 13.837 10.7454 14.0252 11.4839H12.5161ZM11.4839 8.92134C10.1752 9.14006 9.14001 10.1752 8.92129 11.4839H6.95998C7.20207 9.10166 9.10161 7.20217 11.4838 6.96008V8.92134H11.4839ZM8.92134 12.5161C9.14006 13.8247 10.1752 14.8599 11.4839 15.0786V17.0399C9.10171 16.7977 7.20217 14.8982 6.96008 12.5161H8.92134ZM12.5161 15.0787C13.8247 14.8599 14.8599 13.8248 15.0786 12.5161H17.0398C16.7977 14.8983 14.8982 16.7978 12.5161 17.0399V15.0787ZM15.0786 11.4839C14.8599 10.1752 13.8247 9.14006 12.5161 8.92134V6.96008C14.8982 7.20222 16.7977 9.10171 17.0398 11.4839H15.0786ZM11.4839 3.97491V5.92389C8.53217 6.17244 6.17238 8.53222 5.92379 11.4839H3.97486C4.23104 7.4598 7.4598 4.23104 11.4839 3.97491ZM3.97486 12.5161H5.92379C6.17233 15.4677 8.53217 17.8276 11.4839 18.0761V20.0251C7.4598 19.769 4.23104 16.5402 3.97486 12.5161ZM12.5161 20.0251V18.0762C15.4677 17.8276 17.8275 15.4678 18.0761 12.5161H20.025C19.7689 16.5402 16.5402 19.769 12.5161 20.0251Z" fill="black"/>
</svg>
