<svg width="60" height="60" viewBox="0 0 60 60" fill="none" xmlns="http://www.w3.org/2000/svg">
<path d="M58.7098 28.7097H52.6482C52.001 17.226 42.7739 7.99887 31.2901 7.35171V1.2902C31.2901 0.577624 30.7124 0 29.9999 0C29.2875 0 28.7097 0.577624 28.7097 1.2902V7.35184C17.226 7.999 7.99874 17.2262 7.35158 28.7099H1.2902C0.577753 28.7099 0 29.2875 0 30.0001C0 30.7126 0.577753 31.2903 1.2902 31.2903H7.35171C7.99887 42.774 17.226 52.0013 28.7099 52.6483V58.7098C28.7099 59.4224 29.2876 60 30.0001 60C30.7125 60 31.2903 59.4224 31.2903 58.7098V52.6483C42.774 52.0011 52.0011 42.774 52.6483 31.2903H58.7099C59.4224 31.2903 60.0001 30.7126 60.0001 30.0001C60.0001 29.2875 59.4222 28.7097 58.7098 28.7097ZM50.0627 28.7097H45.1903C44.5689 21.3305 38.6695 15.431 31.2903 14.8096V9.93728C41.3505 10.5776 49.4223 18.6495 50.0627 28.7097ZM28.7097 31.2901V35.0632C26.8636 34.5925 25.4073 33.1363 24.9367 31.2901H28.7097ZM24.9367 28.7097C25.4073 26.8636 26.8636 25.4073 28.7097 24.9367V28.7097H24.9367ZM31.2901 31.2901H35.0631C34.5924 33.1363 33.1362 34.5924 31.2901 35.0632V31.2901ZM31.2901 28.7097V24.9367C33.1363 25.4073 34.5924 26.8636 35.0631 28.7097H31.2901ZM28.7097 22.3034C25.438 22.8501 22.85 25.438 22.3032 28.7097H17.3999C18.0052 22.7542 22.754 18.0054 28.7096 17.4002V22.3034H28.7097ZM22.3034 31.2901C22.8501 34.5618 25.438 37.1497 28.7099 37.6965V42.5997C22.7543 41.9943 18.0054 37.2456 17.4002 31.2901H22.3034ZM31.2901 37.6966C34.5618 37.1499 37.1497 34.562 37.6965 31.2903H42.5995C41.9943 37.2457 37.2456 41.9946 31.2901 42.5998V37.6966ZM37.6965 28.7097C37.1497 25.438 34.5618 22.8501 31.2901 22.3034V17.4002C37.2456 18.0056 41.9943 22.7543 42.5995 28.7097H37.6965ZM28.7097 9.93728V14.8097C21.3304 15.4311 15.431 21.3305 14.8095 28.7099H9.93715C10.5776 18.6495 18.6495 10.5776 28.7097 9.93728ZM9.93715 31.2901H14.8095C15.4308 38.6693 21.3304 44.5689 28.7097 45.1903V50.0627C18.6495 49.4224 10.5776 41.3505 9.93715 31.2901ZM31.2901 50.0629V45.1904C38.6693 44.569 44.5688 38.6695 45.1901 31.2903H50.0626C49.4223 41.3505 41.3505 49.4224 31.2901 50.0629Z" fill="#00EFD2"/>
</svg>
